Coordinates
version=1
nRows=19
nColumns=24
inDegrees=yes

Units are S.I. units (second, meters, Newtons, ...)
Angles are in degrees.

endheader
time	pelvis_tilt	pelvis_list	pelvis_rotation	pelvis_tx	pelvis_ty	pelvis_tz	hip_flexion_r	hip_adduction_r	hip_rotation_r	knee_angle_r	ankle_angle_r	subtalar_angle_r	mtp_angle_r	hip_flexion_l	hip_adduction_l	hip_rotation_l	knee_angle_l	ankle_angle_l	subtalar_angle_l	mtp_angle_l	lumbar_extension	lumbar_bending	lumbar_rotation
      0.56300000	      0.45273271	     -0.02021358	      7.08087320	     -0.80830476	      0.89315962	      0.34884310	     25.12933952	      1.03098330	     -9.56571110	     -5.93358409	      3.31036756	      2.03378591	      6.39612912	    -17.96063886	      1.02628235	      3.19164606	     -8.02484792	     17.86800524	      1.85094311	      6.90217560	     -9.76150767	     -0.22358442	    -10.70167998
      0.56716667	      0.40116268	     -0.04525851	      7.11130962	     -0.80256808	      0.89211190	      0.34913240	     25.22572530	      1.15858620	     -9.36706565	     -6.23637382	      3.19708439	      2.05835718	      6.34868536	    -17.96178963	      0.90913237	      3.08066953	     -8.72835449	     18.05574865	      2.20770171	      7.02413925	     -9.69314431	     -0.14921486	    -10.72659517
      0.57133333	      0.38558697	     -0.08784740	      7.12645000	     -0.79675052	      0.89114732	      0.34945035	     25.27925710	      1.31654116	     -9.16075918	     -6.60696434	      3.03406006	      1.99952100	      6.32875801	    -17.97770769	      0.76050847	      2.83251326	     -9.48708851	     18.16475673	      2.73682274	      7.22779328	     -9.64293538	     -0.04077663	    -10.72805934
      0.57550000	      0.40088863	     -0.16055126	      7.13301552	     -0.79087160	      0.89026613	      0.34979297	     25.29103291	      1.51488928	     -8.94743968	     -7.02310370	      2.80862184	      1.88540877	      6.36683618	    -18.01314412	      0.57463058	      2.57856583	    -10.26982947	     18.30372467	      3.24504315	      7.68879420	     -9.63286560	      0.10892224	    -10.70564051
      0.57966667	      0.35635600	     -0.21031420	      7.12733570	     -0.78498090	      0.88933079	      0.35015613	     25.39526830	      1.68498919	     -8.70587272	     -7.55851571	      2.53917124	      1.65551401	      6.43286351	    -17.97495246	      0.42563802	      2.36464051	    -11.07447995	     18.32270619	      3.69163960	      8.03164825	     -9.53959673	      0.21392884	    -10.66153301
      0.58383333	      0.28991539	     -0.26924018	      7.11436851	     -0.77906274	      0.88841328	      0.35053145	     25.52085123	      1.86369091	     -8.44941074	     -8.13428443	      2.17958036	      1.41793177	      6.48321820	    -17.89168337	      0.27866012	      2.22131508	    -11.92750078	     18.35109866	      3.97696784	      8.24380314	     -9.41309690	      0.32893026	    -10.60428632
      0.58800000	      0.33484913	     -0.38166321	      7.09732735	     -0.77302747	      0.88767668	      0.35094518	     25.51031363	      2.12034042	     -8.20969540	     -8.72452779	      1.80770242	      1.01422392	      6.62676937	    -17.89322508	      0.03088812	      1.84595414	    -12.85278428	     18.37287363	      4.65271389	      8.75466014	     -9.40874434	      0.52915338	    -10.51431103
      0.59216667	      0.24730294	     -0.43729758	      7.05654514	     -0.76701737	      0.88681750	      0.35134960	     25.67773856	      2.29953261	     -7.93201767	     -9.42445724	      1.36095799	      0.66971744	      6.69429121	    -17.77075170	     -0.10325814	      1.70990482	    -13.74117049	     18.21751377	      4.88732846	      9.00278785	     -9.24176295	      0.63217088	    -10.43238806
      0.59633333	      0.21649241	     -0.53427444	      7.01396442	     -0.76093782	      0.88606474	      0.35180149	     25.77250403	      2.53863373	     -7.63652898	    -10.12923139	      0.88148740	      0.13783242	      6.79290038	    -17.65105893	     -0.31337107	      1.40129573	    -14.74446579	     18.10561476	      5.39032473	      9.36241092	     -9.13514049	      0.79394866	    -10.29463243
      0.60050000	      0.19606717	     -0.63701937	      6.96201163	     -0.75481119	      0.88537541	      0.35225462	     25.86363686	      2.78348361	     -7.35756185	    -10.87662409	      0.38908195	     -0.37951205	      6.89348725	    -17.53930878	     -0.52642413	      1.12765240	    -15.75674867	     17.91691493	      5.82501637	      9.74434075	     -9.03235133	      0.96695971	    -10.16201959
      0.60466667	      0.24738958	     -0.77272917	      6.91296601	     -0.74861705	      0.88482214	      0.35271261	     25.87358089	      3.06540322	     -7.13134715	    -11.63689604	     -0.09592500	     -0.89707864	      8.61081020	    -17.46385687	     -0.80797673	      0.71811775	    -16.83368789	     17.64187354	      6.33346815	     16.46225126	     -9.01004634	      1.19745518	    -10.09422398
      0.60883333	      0.23895986	     -0.89359103	      6.83821472	     -0.74241016	      0.88424871	      0.35319604	     25.95597692	      3.33879961	     -6.82442077	    -12.43049964	     -0.64802863	     -1.55116869	      8.56023981	    -17.33441122	     -1.03602083	      0.46839072	    -17.90548212	     17.34289117	      6.67050896	     16.59893617	     -8.90499889	      1.39899242	     -9.83170174
      0.61300000	      0.21832275	     -1.00724816	      6.76552295	     -0.73620237	      0.88370246	      0.35368083	     26.07285040	      3.59563276	     -6.54235716	    -13.29142531	     -1.11664564	     -2.15541749	      8.52687596	    -17.14458299	     -1.26368565	      0.19444277	    -19.06040235	     17.01276968	      7.05271976	     16.83110026	     -8.78586380	      1.58883318	     -9.65321550
      0.61716667	      0.17077987	     -1.08294385	      6.66881983	     -0.72998413	      0.88318146	      0.35417909	     26.23858037	      3.81273192	     -6.23406128	    -14.22094387	     -1.48403437	     -2.65980565	      8.51054729	    -16.92927077	     -1.42781284	      0.00120679	    -20.20174353	     16.48727048	      7.27112128	     16.97092420	     -8.64012532	      1.71904567	     -9.50084010
      0.62133333	      0.22664370	     -1.26271225	      6.59853781	     -0.72369600	      0.88284315	      0.35472131	     26.23667698	      4.15691717	     -5.93141339	    -15.02184128	     -1.93486595	     -3.36497072	      8.46383457	    -16.74200538	     -1.76978533	     -0.39335197	    -21.50317358	     16.11126588	      7.81868937	     17.60902874	     -8.60352685	      1.99118159	     -9.22977494
      0.62550000	      0.21201440	     -1.39957994	      6.52236367	     -0.71744022	      0.88246024	      0.35524344	     26.35199675	      4.43805947	     -5.64703162	    -15.93541182	     -2.25152452	     -3.96135177	      8.39365195	    -16.45347830	     -2.04068588	     -0.67345764	    -22.83539790	     15.60719261	      8.17551016	     18.52316726	     -8.47936448	      2.20816097	     -8.96981296
      0.62966667	      0.17785085	     -1.44959827	      6.40328110	     -0.71123465	      0.88210146	      0.35576302	     26.53993598	      4.62664016	     -5.35958023	    -16.99029977	     -2.43988981	     -4.38551984	      8.36461291	    -16.15851538	     -2.17535735	     -0.83809507	    -24.13303984	     14.98340693	      8.28131877	     18.82125634	     -8.35974344	      2.29703477	     -8.83193012
      0.63383333	      0.21331541	     -1.60385213	      6.30898666	     -0.70493134	      0.88190436	      0.35631473	     26.59099641	      4.93923927	     -5.06726581	    -17.91316522	     -2.59488048	     -4.93142956	      7.76513560	    -15.88009484	     -2.47568971	     -1.13239912	    -25.51284665	     14.24383852	      8.50136311	     24.35095292	     -8.29231680	      2.55320065	     -8.67159374
      0.63800000	      0.21486226	     -1.69758847	      6.21559528	     -0.69870278	      0.88170554	      0.35683231	     26.71230670	      5.16655472	     -4.83042363	    -18.92945427	     -2.60389175	     -5.25367183	      7.76236751	    -15.53117723	     -2.69391888	     -1.33397544	    -26.95276772	     13.50598354	      8.71352661	     24.40159281	     -8.20408482	      2.70726527	     -8.41482823
